<svg width="128" height="128" viewBox="0 0 128 128" fill="none" xmlns="http://www.w3.org/2000/svg">
<circle cx="64" cy="64" r="63" fill="#818181" stroke="#616161" stroke-width="2"/>
<path d="M57.5 43H71.3296C72.8258 43 74.0859 41.8988 74.2127 40.4079C74.8036 33.4575 75.435 14.531 65.608 8.58823C62.4085 6.65337 59.7178 5.51841 57.7862 4.86145C56.076 4.27976 54.5 5.59746 54.5 7.40391V40C54.5 41.6569 55.8431 43 57.5 43Z" fill="white"/>
<path d="M74.7616 44.3388L84.5407 54.1179C85.5986 55.1758 87.2684 55.2882 88.4122 54.3236C93.7447 49.8268 107.574 36.8902 104.828 25.7393C103.933 22.1087 102.833 19.4035 101.932 17.5732C101.134 15.9526 99.0879 15.7699 97.8106 17.0473L74.7616 40.0962C73.5901 41.2678 73.5901 43.1673 74.7616 44.3388Z" fill="white"/>
<path d="M86 57.5V71.3296C86 72.8258 87.1012 74.0859 88.5921 74.2127C95.5425 74.8036 114.469 75.435 120.412 65.608C122.347 62.4085 123.482 59.7178 124.139 57.7862C124.72 56.076 123.403 54.5 121.596 54.5H89C87.3431 54.5 86 55.8431 86 57.5Z" fill="white"/>
<path d="M84.6612 74.7617L74.8822 84.5407C73.8242 85.5987 73.7118 87.2684 74.6764 88.4122C79.1733 93.7447 92.1099 107.574 103.261 104.828C106.891 103.933 109.596 102.833 111.427 101.932C113.047 101.134 113.23 99.0879 111.953 97.8106L88.9038 74.7617C87.7322 73.5901 85.8327 73.5901 84.6612 74.7617Z" fill="white"/>
<path d="M71.5 85H57.6704C56.1742 85 54.9141 86.1012 54.7873 87.5921C54.1964 94.5425 53.565 113.469 63.392 119.412C66.5915 121.347 69.2822 122.482 71.2138 123.139C72.924 123.72 74.5 122.403 74.5 120.596V88C74.5 86.3431 73.1569 85 71.5 85Z" fill="white"/>
<path d="M54.2384 84.6612L44.4593 74.8821C43.4014 73.8242 41.7316 73.7118 40.5878 74.6764C35.2553 79.1732 21.4257 92.1098 24.1723 103.261C25.0666 106.891 26.1667 109.596 27.0679 111.427C27.8659 113.047 29.9121 113.23 31.1894 111.953L54.2384 88.9038C55.4099 87.7322 55.4099 85.8327 54.2384 84.6612Z" fill="white"/>
<path d="M43 71.5L43 57.6704C43 56.1742 41.8988 54.9141 40.4079 54.7873C33.4575 54.1964 14.531 53.565 8.58824 63.392C6.65337 66.5915 5.51841 69.2822 4.86145 71.2138C4.27976 72.924 5.59746 74.5 7.40391 74.5H40C41.6569 74.5 43 73.1569 43 71.5Z" fill="white"/>
<path d="M44.3388 54.2383L54.1178 44.4593C55.1758 43.4013 55.2882 41.7316 54.3236 40.5878C49.8267 35.2553 36.8901 21.4257 25.7393 24.1723C22.1087 25.0665 19.4035 26.1666 17.5732 27.0679C15.9525 27.8659 15.7699 29.9121 17.0473 31.1894L40.0962 54.2383C41.2678 55.4099 43.1673 55.4099 44.3388 54.2383Z" fill="white"/>
<circle cx="64.5" cy="64.5" r="24.5" fill="#343C6C"/>
<circle cx="65" cy="64" r="18" fill="#818181"/>
<path fill-rule="evenodd" clip-rule="evenodd" d="M62.004 54.0367L61.5003 52.211L62.8395 53.5502L65.3891 56.0997L64.8633 56.9882L63.4716 55.5965L64.1759 58.1496L63.4683 59.3451L62.004 54.0367ZM62.8211 70.6973L64.2261 62.0918L63.8378 60.6843L64.5453 59.4888L65.2192 61.9314L65.2483 62.0369L65.2306 62.1449L63.6921 71.5683L62.8211 70.6973ZM62.6226 71.913L61.9925 75.7725L62.9162 76.1077L64.3666 73.657L63.6367 72.927L63.4069 73.3153L63.4936 72.784L62.6226 71.913ZM64.1625 72.0386L64.8924 72.7686L65.5798 71.6072L65.2104 70.268L64.1625 72.0386ZM65.9179 69.0725L70.0187 62.1436L66.9346 59.0595L67.1331 57.8438L71.0002 61.7108L71.2745 61.9852L71.0769 62.319L66.2874 70.4117L65.9179 69.0725ZM66.2621 56.9728L66.0636 58.1885L65.5933 57.7181L66.1191 56.8297L66.2621 56.9728Z" fill="white"/>
<path fill-rule="evenodd" clip-rule="evenodd" d="M67.7518 54.0367L68.2554 52.211L66.9163 53.5502L64.3667 56.0998L64.8925 56.9882L66.2842 55.5965L65.5798 58.1496L66.2874 59.3451L67.7518 54.0367ZM65.918 60.6843L65.5297 62.0918L66.9347 70.6973L66.0636 71.5683L64.5251 62.1449L64.5075 62.0369L64.5366 61.9314L65.2104 59.4888L65.918 60.6843ZM64.1625 57.7182L63.6367 56.8297L63.4936 56.9728L63.6921 58.1885L64.1625 57.7182ZM62.8211 59.0595L59.737 62.1436L63.8378 69.0724L63.4684 70.4116L58.6789 62.319L58.4813 61.9852L58.7556 61.7108L62.6226 57.8438L62.8211 59.0595ZM64.1759 71.6072L64.5453 70.268L65.5933 72.0386L64.8633 72.7686L64.1759 71.6072ZM65.3891 73.657L66.8395 76.1077L67.7633 75.7725L67.1331 71.913L66.2621 72.784L66.3489 73.3153L66.1191 72.927L65.3891 73.657Z" fill="white"/>
</svg>
