<svg width="260" height="260" viewBox="0 0 260 260" fill="none" xmlns="http://www.w3.org/2000/svg">
<path d="M101 13.2695C130.748 33.6153 137.849 67.5251 137.682 81.9367C146.526 83.1574 155.102 87.5318 158.284 89.5664C169.942 59.4545 157.782 24.4597 150.244 10.7263C126.929 6.65712 107.7 10.7263 101 13.2695Z" fill="white"/>
<path d="M165.88 15.0017C180.554 48.2536 168.872 81.0773 161.196 93.3327C168.082 99.0829 173.092 107.392 174.736 110.827C200.394 91.2362 208.339 54.7921 209.105 39.019C191.395 23.1306 172.909 16.3873 165.88 15.0017Z" fill="white"/>
<path d="M11.8245 107.087C42.7272 88.6055 76.0129 96.6449 88.7928 102.975C93.6747 95.4111 101.254 89.4441 104.433 87.4061C82.5806 63.8403 46.1577 59.9612 30.6778 60.9673C17.0488 80.5434 12.4302 99.8703 11.8245 107.087Z" fill="white"/>
<path d="M41.2909 48.735C77.1852 49.4628 101.344 74.0299 108.936 86.2225C117.017 82.3851 126.564 81.3429 130.328 81.3015C123.959 49.609 94.9712 26.912 81.2735 19.525C59.5134 28.9274 45.5518 42.916 41.2909 48.735Z" fill="white"/>
<path d="M20.2587 178.32C34.9135 145.031 66.9092 131.858 81.0752 129.433C80.6963 120.405 83.4585 111.076 84.887 107.54C53.273 101.344 21.1145 119.75 8.98703 129.728C9.15132 153.683 16.5699 172.104 20.2587 178.32Z" fill="white"/>
<path d="M63.0138 230.005C58.0643 194.011 78.2216 165.989 88.9189 156.478C83.9013 149.005 81.3792 139.626 80.7454 135.87C50.8322 147.234 33.2606 179.788 28.214 194.645C40.8174 214.913 56.6653 226.664 63.0138 230.005Z" fill="white"/>
<path d="M193.917 232.945C159.63 221.888 143.198 191.197 139.267 177.234C130.444 178.608 120.983 176.861 117.355 175.815C114.729 208.255 136.317 238.534 147.44 249.618C170.942 246.815 188.217 237.335 193.917 232.945Z" fill="white"/>
<path d="M128.743 250.703C105.303 223.092 107.241 188.297 111.14 174.35C102.919 170.828 95.7749 164.316 93.2304 161.5C74.1679 187.651 76.8314 224.836 80.546 240.16C101.998 250.271 121.615 251.402 128.743 250.703Z" fill="white"/>
<path d="M238.771 182.292C204.307 191.842 174.763 175.333 164.299 165.884C157.596 171.846 148.754 175.563 145.171 176.677C159.609 205.051 193.271 218.401 208.297 221.529C226.595 206.362 236.237 189.052 238.771 182.292Z" fill="white"/>
<path d="M222.121 52.5196C216.651 88.5124 189.256 109.673 176.242 115.755C178.952 124.367 178.714 134.098 178.257 137.887C210.314 135.517 236.507 109.263 245.596 96.4319C239.217 73.3596 227.288 57.5435 222.121 52.5196Z" fill="white"/>
<path d="M249.862 114.34C225.923 141.289 192.048 143.639 178.103 141.446C175.665 150.136 170.209 158.115 167.786 161.018C195.32 176.931 230.964 169.664 245.345 164.041C252.595 141.251 251.377 121.411 249.862 114.34Z" fill="white"/>
<circle cx="130" cy="130" r="50" fill="#1C1C1C"/>
<path d="M113 133L119.286 116.533L124.786 121.6L129.5 114L134.214 121.6L139.714 116.533L146 133H113Z" fill="#FF9B6A"/>
<path d="M146 133L139.714 144.267L134.214 140.8L129.5 146L124.786 140.8L119.286 144.267L113 133H146Z" fill="#FF9B6A"/>
<path d="M125 125.5L129.5 121V139.5L125 135.5L120.5 138.5L116 132L120.5 121L125 125.5Z" stroke="black" stroke-width="2"/>
<path d="M134 125.5L129.5 121V139.5L134 135.5L138.5 138.5L143 132L138.5 121L134 125.5Z" stroke="black" stroke-width="2"/>
</svg>
